<svg width="630" height="630" viewBox="0 0 630 630" fill="none" xmlns="http://www.w3.org/2000/svg">
<rect width="630" height="630" rx="315" fill="white"/>
<path fill-rule="evenodd" clip-rule="evenodd" d="M212.707 231.586L189.337 353.771H279.392C282.3 353.771 284.326 353.138 285.469 351.868C286.61 350.599 287.596 347.85 288.43 343.616L307.751 241.742C308.578 237.513 308.685 234.76 308.063 233.492C307.44 232.223 305.67 231.586 302.766 231.586H212.707ZM177.183 213.815C177.809 211.067 179.156 208.793 181.235 206.992C183.31 205.198 185.702 204.296 188.404 204.296H309.306C317.615 204.296 324.472 205.038 329.876 206.515C335.274 207.998 339.382 210.483 342.183 213.974C344.99 217.466 346.593 222.121 347.012 227.937C347.43 233.758 346.801 240.898 345.146 249.357L328.624 335.999C326.964 344.678 324.837 351.868 322.24 357.579C319.639 363.292 316.267 367.893 312.112 371.386C307.954 374.877 302.918 377.367 297.001 378.843C291.078 380.326 283.96 381.065 275.654 381.065L154.747 380.749C152.046 380.749 150.019 379.849 148.672 378.049C147.319 376.253 146.85 373.977 147.268 371.226L177.183 213.815Z" fill="#D9DADB"/>
<path fill-rule="evenodd" clip-rule="evenodd" d="M418.679 235.202L411.201 273.92H500.01C502.918 273.92 504.94 273.283 506.085 272.016C507.225 270.746 508.215 268 509.048 263.766L512.786 245.356C513.614 241.129 513.666 238.376 512.943 237.108C512.21 235.839 510.394 235.202 507.49 235.202H418.679ZM360.408 385.312C357.706 385.312 355.628 384.418 354.176 382.619C352.72 380.823 352.306 378.547 352.929 375.796L383.154 217.429C383.571 214.68 384.817 212.405 386.892 210.606C388.97 208.81 391.359 207.909 394.061 207.909H514.032C522.338 207.909 529.196 208.654 534.6 210.129C539.998 211.613 544.102 214.099 546.907 217.59C549.71 221.078 551.317 225.736 551.736 231.553C552.152 237.374 551.527 244.514 549.868 252.973L549.242 256.149C547.577 264.824 545.451 272.016 542.858 277.729C540.257 283.441 536.884 288.044 532.73 291.533C528.57 295.023 523.537 297.512 517.616 298.993C511.697 300.476 504.578 301.215 496.272 301.215H495.335L522.758 370.715C523.584 372.412 523.693 374.205 523.069 376.112C522.649 378.649 521.402 380.823 519.329 382.619C517.253 384.418 514.76 385.312 511.85 385.312H494.713C493.465 385.312 492.065 384.838 490.507 383.887C488.947 382.936 487.96 381.822 487.546 380.551V380.872L456.385 301.215H405.905L391.882 375.796C391.258 378.547 389.904 380.823 387.829 382.619C385.751 384.418 383.36 385.312 380.663 385.312H360.408Z" fill="#D9DADB"/>
<path fill-rule="evenodd" clip-rule="evenodd" d="M298.579 234.149C298.466 234.002 298.367 233.845 298.251 233.704C297.736 233.063 297.165 232.465 296.572 231.882H302.762C303.651 231.882 304.387 231.964 305.053 232.085L298.579 234.149ZM303.852 249.798C303.397 243.519 301.721 238.431 298.84 234.501L305.902 232.273C306.844 232.562 307.496 233.005 307.8 233.624C308.39 234.816 308.278 237.528 307.465 241.688L303.518 262.493C304.001 257.791 304.124 253.55 303.852 249.798ZM344.859 249.301L328.343 335.939C326.69 344.558 324.548 351.791 321.975 357.452C319.402 363.104 316.023 367.71 311.922 371.16C307.814 374.612 302.769 377.101 296.93 378.554C292.415 379.684 287.133 380.383 281.185 380.648C281.656 378.628 282.106 376.542 282.526 374.361L287.488 348.511C287.926 347.196 288.335 345.597 288.712 343.669L308.035 241.799C308.884 237.451 308.978 234.691 308.322 233.361C307.639 231.968 305.823 231.291 302.762 231.291H295.945C292.881 228.518 288.898 226.448 283.975 225.105C278.367 223.582 271.397 222.741 263.093 222.581L326.065 205.948C327.375 206.2 328.63 206.479 329.798 206.796C335.119 208.26 339.205 210.738 341.953 214.159C344.705 217.579 346.309 222.225 346.718 227.963C347.132 233.711 346.507 240.888 344.859 249.301ZM269.539 408.641C271.651 405.866 273.517 402.736 275.12 399.234C277.412 394.229 279.384 388.227 281.048 381.242C287.101 380.981 292.48 380.277 297.068 379.129C301.334 378.065 305.168 376.437 308.549 374.31L269.539 408.641ZM260.12 222.546H175.821L177.466 213.878C178.073 211.207 179.406 208.962 181.426 207.212C183.442 205.472 185.789 204.592 188.402 204.592H309.309C315.528 204.592 320.981 205.015 325.589 205.855L325.218 205.904L262.373 222.572C261.626 222.56 260.887 222.546 260.12 222.546ZM258.313 265.71L241.563 353.475H189.689L208.716 254.004H252.53C255.902 254.004 257.954 254.738 258.673 256.202C259.399 257.664 259.275 260.837 258.313 265.71ZM236.374 380.666L154.749 380.45C152.263 380.45 150.373 379.632 149.088 378.058L189.282 354.065H241.452L236.374 380.666ZM235.903 383.138C234.939 388.02 233.794 391.189 232.469 392.653C231.144 394.115 228.791 394.846 225.422 394.846H138.862L161.602 381.059L236.262 381.258L235.903 383.138ZM120.966 394.846L148.574 378.365C149.973 380.128 152.042 381.04 154.749 381.04L160.381 381.057L136.904 394.846H120.966ZM147.42 368.871L146.983 371.181C146.561 373.91 147.03 376.214 148.332 378.041L121.065 394.331L123.132 383.598L147.42 368.871ZM148.076 254.004H169.249L147.577 368.048L123.39 382.253L148.076 254.004ZM189.052 353.714L148.832 377.743C147.597 376.037 147.163 373.865 147.553 371.283L148.089 368.465L148.094 368.464L148.09 368.457L169.841 254.004H208.124L189.052 353.714ZM176.966 213.534C176.947 213.61 176.916 213.679 176.898 213.755L175.228 222.546H142.838L176.966 213.534ZM347.303 227.914C346.882 222.059 345.236 217.304 342.408 213.789C339.581 210.265 335.392 207.722 329.951 206.228C324.539 204.75 317.593 204 309.309 204H188.402C186.571 204 184.874 204.45 183.308 205.267L118.162 222.546H118.89L182.415 205.769C181.946 206.072 181.484 206.388 181.046 206.766C179.104 208.446 177.801 210.587 177.1 213.092L141.715 222.546H119.884C116.751 222.546 113.976 223.587 111.572 225.653C109.157 227.732 107.593 230.355 106.87 233.519L72.1712 414.965C71.6871 418.138 72.2296 420.763 73.8 422.83C75.3641 424.903 77.7107 425.943 80.8452 425.943L221.086 426.306C230.721 426.306 238.977 425.453 245.846 423.744C252.709 422.044 258.549 419.175 263.372 415.15C265.22 413.607 266.932 411.871 268.513 409.953L312.294 371.613C316.461 368.111 319.895 363.428 322.506 357.698C325.098 351.996 327.253 344.714 328.909 336.054L345.428 249.415C347.086 240.954 347.718 233.722 347.303 227.914Z" fill="#1D1A51"/>
<path fill-rule="evenodd" clip-rule="evenodd" d="M522.495 370.845C523.3 372.494 523.393 374.183 522.779 376.061C522.378 378.524 521.152 380.651 519.14 382.393C517.493 383.818 515.539 384.635 513.337 384.898L491.436 329.734H492.521C497.371 329.734 501.869 329.516 506.019 329.084L522.495 370.845ZM523.381 376.044L523.65 410.921C523.53 410.56 523.416 410.198 523.243 409.846L513.564 385.47C515.814 385.172 517.821 384.312 519.521 382.838C521.638 381.007 522.926 378.76 523.346 376.203C523.362 376.15 523.366 376.096 523.381 376.044ZM391.597 375.732C390.992 378.404 389.659 380.647 387.642 382.393C385.63 384.134 383.28 385.018 380.663 385.018H377.245L387.705 329.734H400.244L391.597 375.732ZM371.227 416.4C371.291 416.161 371.385 415.943 371.442 415.699L377.135 385.61H380.663C383.424 385.61 385.897 384.677 388.021 382.838C388.446 382.471 388.824 382.065 389.19 381.655L371.227 416.4ZM385.728 211.384C384.2 213.059 383.217 215.053 382.872 217.373L381.953 222.177H373.969C371.935 222.177 370.073 222.663 368.345 223.535L385.728 211.384ZM514.033 208.202C522.247 208.202 529.141 208.947 534.523 210.415C536.881 211.061 538.984 211.92 540.849 212.96H540.622L531.737 223.585C526.451 222.652 520.248 222.177 513.122 222.177H382.546L383.444 217.477C383.841 214.815 385.067 212.576 387.083 210.831C389.1 209.085 391.45 208.202 394.062 208.202H514.033ZM546.683 217.773C549.432 221.202 551.034 225.846 551.444 231.575C551.494 232.275 551.527 232.998 551.547 233.737C551.446 233.607 551.357 233.467 551.255 233.339C548.001 229.313 543.239 226.448 536.978 224.74C535.493 224.338 533.901 223.983 532.224 223.675L541.15 213.127C543.359 214.403 545.218 215.95 546.683 217.773ZM410.882 274.038L394.003 297.478L402.522 253.639H414.822L410.882 274.038ZM505.534 253.639C507.799 253.639 509.478 253.98 510.604 254.641L508.762 263.709C507.947 267.858 506.975 270.589 505.87 271.818C504.787 273.02 502.817 273.627 500.012 273.627H411.554L415.413 253.639H505.534ZM393.848 298.271L393.853 298.242L411.261 274.217H500.012C502.986 274.217 505.101 273.547 506.303 272.217C507.495 270.885 508.485 268.141 509.332 263.825L511.123 255.001C511.421 255.247 511.675 255.522 511.859 255.837C512.699 257.3 512.638 260.472 511.677 265.345L507.341 286.566C506.375 291.446 505.226 294.611 503.905 296.073C502.578 297.537 500.227 298.271 496.858 298.271H393.848ZM556.855 249.435C556.415 243.37 554.836 238.409 552.136 234.54C552.125 233.504 552.096 232.491 552.028 231.53C551.606 225.677 549.961 220.927 547.137 217.404C544.307 213.882 540.116 211.341 534.676 209.845C529.246 208.362 522.298 207.612 514.033 207.612H394.062C391.306 207.612 388.831 208.545 386.703 210.383C386.545 210.521 386.424 210.681 386.276 210.823L366.318 224.617H366.58C366.272 224.843 365.952 225.034 365.654 225.288C363.246 227.364 361.798 229.986 361.318 233.154L326.26 415.699C325.537 418.871 326.017 421.495 327.705 423.565C329.389 425.639 331.8 426.673 334.935 426.673H358.425C361.557 426.673 364.329 425.639 366.74 423.565C368.538 422.018 369.867 420.161 370.728 417.996L390.185 380.362C391.1 379.025 391.785 377.531 392.166 375.85L400.838 329.734H446.258L482.403 421.552V421.183C482.881 422.647 484.026 423.929 485.835 425.028C487.641 426.123 489.266 426.673 490.71 426.673H510.591C513.965 426.673 516.856 425.639 519.266 423.565C521.673 421.495 523.117 418.991 523.604 416.063C523.96 414.982 524.106 413.933 524.052 412.913L524.056 412.92L523.683 374.774C523.777 374.098 523.751 373.438 523.663 372.786L523.659 372.559L523.636 372.615C523.525 371.929 523.345 371.257 523.027 370.607L506.617 329.013C510.476 328.586 514.038 327.977 517.279 327.171C524.146 325.466 529.985 322.597 534.809 318.572C539.629 314.55 543.54 309.243 546.557 302.66C549.566 296.073 552.033 287.786 553.965 277.786L554.688 274.126C556.613 264.374 557.338 256.144 556.856 249.435H556.855Z" fill="#1D1A51"/>
</svg>
